<svg xmlns="http://www.w3.org/2000/svg" viewBox="0 0 100 100"><circle cx="50" cy="50" r="8" fill="#61dafb"/><path d="M50 15c-15 0-28 5-35 12 7 7 14 18 18 32 4-14 11-25 18-32-7-7-20-12-35-12z" fill="none" stroke="#61dafb" stroke-width="2"/><path d="M50 85c15 0 28-5 35-12-7-7-14-18-18-32-4 14-11 25-18 32 7 7 20 12 35 12z" fill="none" stroke="#61dafb" stroke-width="2"/><path d="M15 35c-7 7-12 20-12 15 0 0 5-8 12-15 7-7 20-12 15 0-5-8-18-3-15 0z" fill="none" stroke="#61dafb" stroke-width="2"/><path d="M85 65c7-7 12-20 12-15 0 0-5 8-12 15-7 7-20 12-15 0 5 8 18 3 15 0z" fill="none" stroke="#61dafb" stroke-width="2"/></svg>
